<svg width="32" height="32" viewBox="0 0 32 32" fill="none" xmlns="http://www.w3.org/2000/svg">
<g clip-path="url(#clip0_8008_11)">
<path opacity="0.999" fill-rule="evenodd" clip-rule="evenodd" d="M2.40625 3.78122C6.89219 7.11822 11.413 10.4099 15.9688 13.6562C20.5257 10.4115 25.0465 7.11979 29.5312 3.78122C30.0573 3.75587 30.5782 3.78712 31.0938 3.87497C31.5104 4.09324 31.802 4.41615 31.9688 4.84372C31.9688 5.55205 31.9688 6.26041 31.9688 6.96872C30.7164 7.88616 29.4664 8.80279 28.2188 9.71872C24.1372 12.6765 20.0539 15.6348 15.9688 18.5937C11.8903 15.643 7.81738 12.6847 3.75 9.71872C3.71875 15.8645 3.70833 22.0103 3.71875 28.1562C2.82267 28.1667 1.92684 28.1562 1.03125 28.125C0.519727 27.9363 0.16556 27.5925 -0.03125 27.0937C-0.03125 21.1145 -0.03125 15.1354 -0.03125 9.15622C1.17639 9.33329 2.38473 9.48954 3.59375 9.62497C2.39467 8.72372 1.18634 7.83829 -0.03125 6.96872C-0.03125 6.26041 -0.03125 5.55205 -0.03125 4.84372C0.135484 4.41615 0.427151 4.09324 0.84375 3.87497C1.35932 3.78712 1.88016 3.75587 2.40625 3.78122Z" fill="#2BDEFD"/>
<path fill-rule="evenodd" clip-rule="evenodd" d="M-0.03125 6.96875C1.18634 7.83831 2.39467 8.72375 3.59375 9.625C2.38473 9.48956 1.17639 9.33331 -0.03125 9.15625C-0.03125 8.42706 -0.03125 7.69794 -0.03125 6.96875Z" fill="#22D4FD"/>
<path fill-rule="evenodd" clip-rule="evenodd" d="M31.9688 6.96875C31.9688 13.6771 31.9688 20.3854 31.9688 27.0938C31.7719 27.5926 31.4178 27.9363 30.9062 28.125C30.0107 28.1562 29.1148 28.1667 28.2188 28.1562C28.2188 22.0104 28.2188 15.8646 28.2188 9.71875C29.4664 8.80281 30.7164 7.88619 31.9688 6.96875Z" fill="#22D4FD"/>
</g>
<defs>
<clipPath id="clip0_8008_11">
<rect width="32" height="32" fill="white"/>
</clipPath>
</defs>
</svg>
